<svg width="10" height="17" viewBox="0 0 10 17" fill="none" xmlns="http://www.w3.org/2000/svg">
<path d="M9.342 11.544C9.342 12.54 9.018 13.368 8.37 14.028C7.722 14.676 6.864 15.066 5.796 15.198V16.8H4.626V15.216C3.63 15.156 2.778 14.886 2.07 14.406C1.362 13.926 0.852 13.272 0.54 12.444L2.322 11.418C2.73 12.462 3.498 13.05 4.626 13.182V9.438C3.594 9.042 2.796 8.634 2.232 8.214C1.488 7.638 1.116 6.804 1.116 5.712C1.116 4.716 1.452 3.9 2.124 3.264C2.784 2.64 3.618 2.28 4.626 2.184V0.6H5.796V2.202C7.392 2.418 8.508 3.24 9.144 4.668L7.398 5.676C7.086 4.896 6.552 4.422 5.796 4.254V7.818C6.252 7.998 6.54 8.112 6.66 8.16C7.38 8.448 7.902 8.742 8.226 9.042C9.03 9.726 9.402 10.56 9.342 11.544ZM3.186 5.712C3.186 6.072 3.294 6.372 3.51 6.612C3.726 6.852 4.098 7.098 4.626 7.35V4.218C4.182 4.29 3.828 4.458 3.564 4.722C3.312 4.986 3.186 5.316 3.186 5.712ZM5.796 9.888V13.164C6.264 13.068 6.624 12.876 6.876 12.588C7.14 12.3 7.272 11.958 7.272 11.562C7.272 11.178 7.158 10.86 6.93 10.608C6.702 10.356 6.324 10.116 5.796 9.888Z" fill="white"/>
</svg>
